<svg width="560" height="230" viewBox="0 0 560 230" fill="none" xmlns="http://www.w3.org/2000/svg">
<!-- <rect width="560" height="230" fill="white"/> -->
<path fill-rule="evenodd" clip-rule="evenodd" d="M234.71 44.2617H473.634C505.699 44.2617 531.918 75.8045 531.918 114.273V115.669C531.918 154.196 505.699 185.68 473.634 185.68H234.71C202.645 185.68 176.426 154.196 176.426 115.669V114.273C176.426 75.7463 202.645 44.2617 234.71 44.2617Z" fill="white"/>
<path fill-rule="evenodd" clip-rule="evenodd" d="M97.7104 44.2617H231.874C208.954 56.6577 193.153 82.2644 193.153 111.712V113.225C193.153 147.62 214.742 176.776 243.97 185.739H97.7104C59.4524 185.739 28.082 154.196 28.082 115.728V114.331C28.082 75.7463 59.3945 44.2617 97.7104 44.2617Z" fill="#C00D0D"/>
<path fill-rule="evenodd" clip-rule="evenodd" d="M503.094 64.5728C516.928 76.5613 525.783 94.9516 525.783 115.495V116.834C525.783 152.741 498.638 182.073 465.415 182.073H249.353C243.913 179.454 238.761 176.02 234.189 172.063C234.478 172.063 234.768 172.063 235.057 172.063H456.155C489.319 172.063 516.464 142.673 516.464 106.824V105.485C516.464 90.0048 511.429 75.8048 503.037 64.5728" fill="#C00D0D"/>
<path fill-rule="evenodd" clip-rule="evenodd" d="M83.5301 89.248H104.482L108.187 67.4241C108.476 65.6782 109.46 64.0487 110.849 62.8848C112.18 61.7208 113.917 61.0225 115.711 61.0225H145.518C145.924 61.0225 146.271 61.0225 146.618 61.1389C148.007 61.3716 149.223 62.07 150.033 63.1176C150.843 64.1069 151.364 65.4454 151.364 66.8422C151.364 67.1913 151.364 67.5987 151.248 68.0061L147.255 89.248H170.58C170.985 89.248 171.332 89.248 171.68 89.3644C173.127 89.5972 174.284 90.3538 175.152 91.3431C176.021 92.3906 176.484 93.671 176.484 95.1259C176.484 95.4751 176.484 95.8825 176.368 96.2898L171.853 125.097C171.564 126.901 170.522 128.531 169.191 129.695C167.802 130.859 166.065 131.615 164.271 131.615H139.615L136.142 154.079C135.853 155.825 134.811 157.455 133.48 158.619C132.148 159.783 130.412 160.481 128.618 160.481H98.8101C98.405 160.481 98.0577 160.481 97.7104 160.365C96.3213 160.132 95.1059 159.434 94.2956 158.386C93.4853 157.397 92.9643 156.058 92.9643 154.661C92.9643 154.312 92.9643 153.905 93.0801 153.498L97.1895 131.557H76.8161C76.411 131.557 76.0637 131.557 75.7164 131.441C74.2694 131.208 73.1119 130.451 72.2437 129.462C71.3755 128.415 70.9125 127.134 70.9125 125.679C70.9125 125.33 70.9125 124.923 71.0282 124.515L75.8901 95.7079C76.1795 93.9038 77.2213 92.2743 78.5525 91.1103C79.9416 89.9464 81.678 89.1898 83.4722 89.1898" fill="white"/>
<path fill-rule="evenodd" clip-rule="evenodd" d="M282.807 109.035C281.592 114.505 279.334 119.394 276.035 123.7C272.736 128.007 268.974 131.324 264.865 133.652C261.392 135.631 257.861 136.911 254.157 137.435C250.453 138.017 246.575 138.308 242.581 138.308H234.71C230.253 138.075 226.607 134.641 226.086 130.218L234.71 90.7027L235.231 88.2584C236.793 83.428 241.134 79.9362 246.401 79.6452H255.257C259.366 79.6452 263.128 79.9362 266.601 80.46C270.074 80.9838 273.141 82.2641 275.862 84.301C279.161 86.7453 281.476 90.1207 282.807 94.2527C284.08 98.4429 284.138 103.39 282.923 109.035M267.817 108.918C268.685 105.019 268.743 101.76 267.99 99.0248C267.296 96.2896 265.733 94.1363 263.302 92.565C261.566 91.4592 259.598 90.8773 257.456 90.7609C255.315 90.6445 252.71 90.5863 249.7 90.5863H249.411L241.424 127.309H241.713C245.012 127.309 247.79 127.309 250.048 127.134C252.305 127.018 254.62 126.319 256.935 125.039C259.656 123.526 261.971 121.431 263.765 118.754C265.617 116.077 266.948 112.818 267.817 108.977M320.66 107.114H319.502C319.039 106.94 318.287 106.765 317.303 106.707C316.319 106.59 315.219 106.59 314.062 106.59C312.615 106.59 311.052 106.823 309.374 107.231C307.695 107.638 306.074 108.162 304.454 108.744L297.971 138.366H291.778C288.537 138.191 285.875 135.689 285.527 132.488L292.589 100.247L292.878 98.9084C293.746 96.2314 296.177 94.2527 299.071 94.1363H307.637L306.248 100.48C307.001 99.8978 308.042 99.1994 309.316 98.3265C310.647 97.4535 311.804 96.7552 312.788 96.2314C313.888 95.6494 315.161 95.1256 316.608 94.6601C317.998 94.2527 319.329 94.0199 320.486 94.0199C320.949 94.0199 321.412 94.0199 321.991 94.0199C322.512 94.0199 323.033 94.0781 323.438 94.1363L320.602 107.172L320.66 107.114ZM366.153 116.193C364.59 123.468 361.349 129.229 356.487 133.419C351.625 137.609 345.548 139.705 338.313 139.705C331.078 139.705 325.985 137.609 322.917 133.419C319.85 129.229 319.097 123.468 320.718 116.193C322.338 108.86 325.58 103.099 330.442 98.9084C335.303 94.7765 341.381 92.6814 348.558 92.6814C355.735 92.6814 360.886 94.7765 363.953 98.9666C367.021 103.157 367.716 108.918 366.153 116.193ZM352.088 116.309C352.667 113.69 352.899 111.479 352.899 109.733C352.841 107.987 352.551 106.59 352.03 105.543C351.452 104.437 350.699 103.681 349.773 103.215C348.847 102.808 347.747 102.575 346.416 102.575C345.201 102.575 344.043 102.749 342.943 103.157C341.844 103.506 340.802 104.263 339.702 105.31C338.718 106.358 337.792 107.754 336.924 109.558C336.056 111.363 335.361 113.574 334.725 116.309C334.146 119.045 333.856 121.198 333.972 122.886C334.03 124.573 334.319 125.912 334.84 126.901C335.361 127.949 336.114 128.647 337.098 129.171C338.082 129.636 339.239 129.869 340.57 129.869C341.67 129.869 342.828 129.636 344.101 129.171C345.316 128.705 346.416 128.007 347.284 127.018C348.326 125.912 349.252 124.515 350.005 122.944C350.757 121.372 351.452 119.161 352.088 116.368M397.928 124.341L402.269 104.321C401.633 104.03 400.88 103.739 399.954 103.506C398.97 103.331 398.044 103.215 397.06 103.215C393.761 103.215 391.041 104.263 388.957 106.416C386.816 108.569 385.369 111.537 384.5 115.378C384.095 117.299 383.864 118.928 383.806 120.209C383.806 121.547 383.98 122.711 384.443 123.759C384.906 124.748 385.6 125.504 386.526 126.028C387.452 126.552 388.783 126.785 390.404 126.785C391.62 126.785 392.893 126.552 394.166 126.145C395.44 125.737 396.713 125.097 397.928 124.341ZM409.736 133.245C408.867 137.377 407.478 140.81 405.684 143.662C403.89 146.514 401.806 148.725 399.433 150.355C397.06 151.984 394.34 153.148 391.33 153.905C388.32 154.603 385.079 155.01 381.606 155.01C378.713 155.01 375.934 154.836 373.388 154.428C370.841 154.021 368.642 153.614 366.847 153.09L369.278 142.032H370.899C371.536 142.323 372.288 142.556 373.098 142.905C373.966 143.255 374.835 143.487 375.703 143.778C376.745 144.069 377.786 144.302 378.828 144.477C379.87 144.651 380.912 144.768 382.07 144.768C384.385 144.768 386.41 144.535 388.031 144.069C389.71 143.604 390.983 142.905 391.967 141.974C392.951 141.043 393.703 139.996 394.34 138.715C394.919 137.435 395.44 135.864 395.845 134.001L396.018 133.186C394.166 134.583 392.14 135.631 389.941 136.504C387.742 137.318 385.542 137.726 383.401 137.726C377.729 137.726 373.735 135.864 371.42 132.139C369.163 128.414 368.815 122.769 370.494 115.145C371.246 111.712 372.404 108.569 373.966 105.834C375.529 103.099 377.381 100.713 379.465 98.792C381.491 96.9297 383.748 95.4748 386.295 94.4855C388.841 93.4961 391.33 92.9723 393.819 92.9723C396.076 92.9723 397.986 93.2633 399.665 93.8453C401.343 94.4273 402.79 95.1838 404.006 96.1732L404.932 94.1945H410.257C413.671 94.3109 416.45 96.9297 416.855 100.305L409.678 133.303L409.736 133.245ZM445.852 126.785L447.878 117.59C445.505 117.822 443.595 118.055 442.09 118.172C440.585 118.346 439.138 118.695 437.633 119.161C436.36 119.568 435.26 120.209 434.45 121.082C433.582 121.954 433.003 123.06 432.714 124.515C432.251 126.61 432.54 128.007 433.466 128.764C434.392 129.52 435.955 129.927 438.096 129.927C439.312 129.927 440.585 129.636 441.974 129.113C443.363 128.589 444.637 127.774 445.91 126.785M444.347 133.652C443.248 134.467 442.264 135.165 441.338 135.805C440.469 136.446 439.312 137.086 437.923 137.668C436.534 138.25 435.26 138.715 434.045 139.064C432.829 139.355 431.151 139.53 429.067 139.53C425.189 139.53 422.237 138.191 420.212 135.573C418.186 132.954 417.665 129.636 418.533 125.621C419.228 122.362 420.501 119.685 422.237 117.648C423.974 115.611 426.231 114.04 428.894 112.818C431.672 111.595 434.797 110.781 438.328 110.315C441.858 109.849 445.678 109.5 449.672 109.209V108.977C450.251 106.532 449.73 104.845 448.167 103.913C446.605 102.982 444 102.517 440.411 102.517C438.791 102.517 436.823 102.808 434.508 103.39C432.193 103.972 429.935 104.728 427.678 105.659H426.521L428.836 95.0092C430.283 94.6019 432.598 94.1363 435.723 93.6125C438.849 93.0887 441.974 92.7978 445.1 92.7978C452.682 92.7978 457.949 94.0781 460.843 96.5806C463.737 99.083 464.663 102.982 463.505 108.162L456.965 138.25H443.305L444.347 133.536V133.652ZM473.808 138.308H473.171H467.152L480.522 77.0264H483.01C483.01 77.0264 483.242 77.0264 483.358 77.0264C488.046 77.0264 491.924 80.5764 492.445 85.1739L482.605 130.16L482.258 131.906C481.1 135.514 477.801 138.191 473.865 138.308" fill="#003D75"/>
</svg>
