<svg width="24" height="24" viewBox="0 0 24 24" fill="none" xmlns="http://www.w3.org/2000/svg">
<g clip-path="url(#clip0_296_3304)">
<path d="M19.04 3H5.04004C3.94004 3 3.04004 3.9 3.04004 5V19C3.04004 20.1 3.94004 21 5.04004 21H19.04C20.14 21 21.04 20.1 21.04 19V5C21.04 3.9 20.14 3 19.04 3ZM14.04 17C13.49 17 13.04 16.55 13.04 16V13H10.04C9.49004 13 9.04004 12.55 9.04004 12V8C9.04004 7.45 9.49004 7 10.04 7C10.59 7 11.04 7.45 11.04 8V11H13.04V8C13.04 7.45 13.49 7 14.04 7C14.59 7 15.04 7.45 15.04 8V16C15.04 16.55 14.59 17 14.04 17Z" fill="#323232"/>
</g>
<defs>
<clipPath id="clip0_296_3304">
<rect width="24" height="24" fill="white"/>
</clipPath>
</defs>
</svg>
