<svg width="24" height="24" viewBox="0 0 24 24" fill="none" xmlns="http://www.w3.org/2000/svg">
<g clip-path="url(#clip0_296_2727)">
<path d="M17.7001 19.7C18.0901 19.31 18.0901 18.68 17.7001 18.29L15.0001 15.59L13.5901 17L16.2901 19.7C16.6801 20.09 17.3201 20.09 17.7001 19.7ZM8.71006 7.99999H11.0001V13.59L6.29006 18.29C5.90006 18.68 5.90006 19.31 6.29006 19.7C6.68006 20.09 7.31006 20.09 7.70006 19.7L12.4101 15C12.7901 14.62 13.0001 14.12 13.0001 13.59V7.99999H15.2901C15.7401 7.99999 15.9601 7.45999 15.6401 7.14999L12.3501 3.85999C12.1501 3.65999 11.8401 3.65999 11.6401 3.85999L8.35006 7.14999C8.04006 7.45999 8.26006 7.99999 8.71006 7.99999Z" fill="#323232"/>
</g>
<defs>
<clipPath id="clip0_296_2727">
<rect width="24" height="24" fill="white"/>
</clipPath>
</defs>
</svg>
