<svg width="24" height="24" viewBox="0 0 24 24" fill="none" xmlns="http://www.w3.org/2000/svg">
<g clip-path="url(#clip0_296_4590)">
<path d="M13.0001 18H11.0001V16H13.0001V18ZM9.0001 15V19C9.0001 19.55 9.4501 20 10.0001 20H14.0001C14.5501 20 15.0001 19.55 15.0001 19V15C15.0001 14.45 14.5501 14 14.0001 14H10.0001C9.4501 14 9.0001 14.45 9.0001 15ZM19.0001 9.29997V4.99997C19.0001 4.44997 18.5501 3.99997 18.0001 3.99997H17.0001C16.4501 3.99997 16.0001 4.44997 16.0001 4.99997V6.59997L12.6701 3.59997C12.2901 3.25997 11.7101 3.25997 11.3301 3.59997L2.9701 11.13C2.6301 11.43 2.8401 12 3.3001 12H4.6101C4.8601 12 5.1001 11.91 5.2801 11.74L12.0001 5.68997L18.7101 11.74C18.9001 11.91 19.1401 12 19.3801 12H20.6901C21.1501 12 21.3701 11.43 21.0201 11.13L19.0001 9.29997Z" fill="#323232"/>
</g>
<defs>
<clipPath id="clip0_296_4590">
<rect width="24" height="24" fill="white"/>
</clipPath>
</defs>
</svg>
