<svg width="24" height="24" viewBox="0 0 24 24" fill="none" xmlns="http://www.w3.org/2000/svg">
<g clip-path="url(#clip0_296_1220)">
<path d="M11 9.00001H13V11H11V9.00001ZM15 9.00001H17V11H15V9.00001ZM19 9.00001H21V11H19V9.00001ZM19.23 15.26L16.69 14.97C16.08 14.9 15.48 15.11 15.05 15.54L13.21 17.38C10.38 15.94 8.05999 13.63 6.61999 10.79L8.47 8.94001C8.89999 8.51001 9.10999 7.91001 9.03999 7.30001L8.74999 4.78001C8.62999 3.77001 7.77999 3.01001 6.76 3.01001H5.03C3.9 3.01001 2.95999 3.95001 3.02999 5.08001C3.55999 13.62 10.39 20.44 18.92 20.97C20.05 21.04 20.99 20.1 20.99 18.97V17.24C21 16.23 20.24 15.38 19.23 15.26Z" fill="#323232"/>
</g>
<defs>
<clipPath id="clip0_296_1220">
<rect width="24" height="24" fill="white"/>
</clipPath>
</defs>
</svg>
