<svg width="24" height="24" viewBox="0 0 24 24" fill="none" xmlns="http://www.w3.org/2000/svg">
<g clip-path="url(#clip0_296_4651)">
<path d="M11.3301 3.59997L2.9701 11.13C2.6301 11.43 2.8401 12 3.3001 12H5.0001V19C5.0001 19.55 5.4501 20 6.0001 20H18.0001C18.5501 20 19.0001 19.55 19.0001 19V12H20.7001C21.1601 12 21.3801 11.43 21.0301 11.13L12.6701 3.59997C12.2901 3.25997 11.7101 3.25997 11.3301 3.59997ZM12.0001 16C10.9001 16 10.0001 15.1 10.0001 14C10.0001 13.22 10.9901 11.56 11.5801 10.64C11.7801 10.33 12.2201 10.33 12.4201 10.64C13.0101 11.56 14.0001 13.22 14.0001 14C14.0001 15.1 13.1001 16 12.0001 16Z" fill="#323232"/>
</g>
<defs>
<clipPath id="clip0_296_4651">
<rect width="24" height="24" fill="white"/>
</clipPath>
</defs>
</svg>
